# Blender v2.76 (sub 0) OBJ File: 'mese.blend'
# www.blender.org
mtllib mese.mtl
o Cube.001_Cube.000
v -0.037377 -0.465559 0.027220
v 0.013168 0.494350 0.026303
v -0.056905 -0.463855 -0.007563
v -0.000562 0.494404 -0.012522
v -0.002657 -0.468587 0.007563
v 0.052054 0.494194 0.012524
v -0.022244 -0.466879 -0.027220
v 0.038272 0.494249 -0.026300
v -0.234527 0.032532 0.257987
v -0.256799 0.033662 -0.235636
v 0.236269 0.008635 -0.257985
v 0.258592 0.007502 0.235639
v -0.041293 -0.514356 0.030072
v -0.062867 -0.512474 0.008422
v -0.000621 0.546198 0.013893
v 0.014549 0.546138 0.029059
v -0.062867 -0.512474 -0.008356
v -0.041227 -0.514362 -0.030072
v 0.014605 0.546137 -0.029056
v -0.000621 0.546198 -0.013834
v -0.002934 -0.517702 0.008356
v -0.024574 -0.515814 0.030072
v 0.042283 0.546026 0.029059
v 0.057509 0.545965 0.013837
v -0.024574 -0.515814 -0.030072
v -0.002934 -0.517702 -0.008356
v 0.057509 0.545965 -0.013834
v 0.042283 0.546026 -0.029056
v -0.259101 0.035927 0.285021
v -0.283707 0.037176 0.260387
v -0.285168 -0.003376 0.260129
v -0.260561 -0.004625 0.284763
v -0.260505 -0.004628 -0.284760
v -0.285168 -0.003376 -0.260070
v -0.283707 0.037176 -0.260328
v -0.259044 0.035925 -0.285018
v 0.283714 -0.032251 -0.260070
v 0.259051 -0.030999 -0.284760
v 0.261027 0.009527 -0.285018
v 0.285690 0.008275 -0.260328
v 0.259051 -0.030999 0.284763
v 0.283714 -0.032251 0.260072
v 0.285690 0.008275 0.260330
v 0.261027 0.009527 0.285021
v 0.007836 0.533098 0.045223
v -0.016805 0.533196 0.020589
v -0.016805 0.533196 -0.020529
v 0.007892 0.533097 -0.045220
v 0.073661 0.532834 0.020532
v 0.048964 0.532933 0.045223
v 0.048964 0.532933 -0.045220
v 0.073661 0.532834 -0.020529
v -0.018888 -0.506325 0.042058
v 0.009748 -0.508823 0.013321
v -0.074072 -0.501512 0.013387
v -0.045501 -0.504004 0.042058
v -0.045435 -0.504010 -0.042058
v -0.074072 -0.501512 -0.013320
v 0.009748 -0.508823 -0.013320
v -0.018888 -0.506325 -0.042058
vt 0.668469 0.248921
vt 0.711793 0.011658
vt 0.737463 0.000000
vt 0.000000 0.248791
vt 0.049626 0.013093
vt 0.074586 0.000000
vt 0.668469 0.748290
vt 0.710991 0.512990
vt 0.735849 0.499887
vt 0.318189 0.494060
vt 0.295560 0.506205
vt 0.998851 0.986998
vt 0.976803 1.000000
vt 1.000000 0.486094
vt 0.978319 0.499887
vt 0.643269 0.000000
vt 0.668469 0.012503
vt 0.655608 0.020497
vt 0.334098 0.499030
vt 0.406209 0.510503
vt 0.383867 0.498065
vt 0.334098 0.256595
vt 0.630403 0.008008
vt 1.000000 0.128295
vt 0.334098 0.133391
vt 0.998851 0.625695
vt 0.311428 0.511188
vt 0.668469 0.371560
vt 0.459373 0.558499
vt 0.250168 0.558499
vt 0.250168 0.344040
vt 0.006681 0.558499
vt 0.215947 0.558499
vt 0.215947 0.571595
vt 0.493593 0.558499
vt 0.493593 0.344040
vt 0.702798 0.344040
vt 0.006681 0.344040
vt 0.006681 0.786409
vt 0.006681 0.571595
vt 0.737019 0.786409
vt 0.737019 0.571595
vt 0.946285 0.571595
vt 0.459373 0.786409
vt 0.250168 0.786409
vt 0.250168 0.571595
vt 0.702798 0.786409
vt 0.493593 0.786409
vt 0.493593 0.571595
vt 0.946285 0.558499
vt 0.737019 0.558499
vt 0.737019 0.344040
vt 0.459373 0.571595
vt 0.702798 0.558499
vt 0.702798 0.571595
vt 0.109132 0.885238
vt 0.095711 0.871754
vt 0.135123 0.834034
vt 0.980419 0.558499
vt 0.980419 0.571595
vt 0.980419 0.786409
vt 0.946285 0.786409
vt 0.215947 0.344040
vt 0.946285 0.344040
vt 0.980419 0.344040
vt 0.215947 0.786409
vt 0.459373 0.344040
vt 0.259513 0.587162
vt 0.275918 0.603892
vt 0.259158 0.633637
vt 0.109596 0.832673
vt 0.095593 0.846966
vt 0.077526 0.840359
vt 0.102273 0.902667
vt 0.078503 0.879571
vt 0.147916 0.848217
vt 0.142953 0.817106
vt 0.147043 0.872484
vt 0.164218 0.879750
vt 0.140650 0.902667
vt 0.104643 0.814351
vt 0.165278 0.841356
vt 0.133335 0.885514
vt 0.275740 0.616780
vt 0.287163 0.621165
vt 0.229676 0.616521
vt 0.246060 0.633716
vt 0.240484 0.644331
vt 0.229960 0.603635
vt 0.218689 0.599167
vt 0.241862 0.575912
vt 0.263878 0.575769
vt 0.287163 0.599118
vt 0.264232 0.644749
vt 0.218554 0.620963
vt 0.246684 0.587115
vt 0.100363 0.815150
vt 0.242300 0.645608
vn 0.738000 -0.034300 0.673800
vn 0.555400 0.793500 0.248800
vn -0.222300 0.815700 0.534000
vn -0.736400 0.046400 -0.674900
vn -0.508800 0.825500 -0.244100
vn 0.270900 0.803000 -0.530800
vn 0.674400 -0.031000 -0.737700
vn 0.092300 -0.820700 -0.563800
vn -0.622100 -0.768400 -0.150000
vn 0.503700 -0.850300 0.152600
vn -0.209600 -0.798000 0.565000
vn -0.672400 0.043000 0.738900
vn 0.866300 -0.319300 -0.384100
vn 0.866300 -0.319300 0.384100
vn 0.662700 -0.702000 0.260900
vn -0.396700 -0.255700 0.881600
vn 0.371900 -0.294900 0.880200
vn 0.398300 0.236100 0.886300
vn 0.371900 -0.294900 -0.880200
vn 0.204800 -0.668000 -0.715400
vn -0.307700 -0.632600 -0.710700
vn -0.307700 -0.632600 0.710700
vn -0.248600 0.652500 0.715800
vn -0.375100 0.273900 0.885600
vn -0.697300 0.668600 -0.258300
vn -0.872700 0.297600 -0.387000
vn -0.872700 0.297600 0.387000
vn 0.735000 0.623800 -0.265600
vn 0.735000 0.623800 0.265600
vn 0.897100 0.212200 0.387600
vn -0.248700 0.652500 -0.715800
vn 0.272900 0.637000 -0.720900
vn 0.398300 0.236100 -0.886300
vn -0.893200 -0.231200 0.385700
vn -0.893200 -0.231200 -0.385700
vn -0.756700 -0.602000 -0.254900
vn 0.897100 0.212200 -0.387600
vn -0.396700 -0.255700 -0.881600
vn -0.375100 0.273900 -0.885600
vn -0.142800 0.924500 -0.353400
vn -0.350000 0.925200 -0.146500
vn 0.149700 0.923500 0.353100
vn -0.697300 0.668600 0.258300
vn 0.204800 -0.668000 0.715400
vn -0.756700 -0.602000 0.254900
vn 0.272900 0.637000 0.720900
vn 0.662700 -0.702000 -0.260900
vn 0.069600 -0.930300 -0.360100
vn 0.280500 -0.948100 -0.149500
vn 0.069600 -0.930300 0.360100
vn -0.142800 0.924500 0.353400
vn -0.350000 0.925200 0.146500
vn 0.356400 0.922800 0.146200
vn 0.356400 0.922800 -0.146200
vn 0.149700 0.923500 -0.353100
vn 0.280500 -0.948100 0.149500
vn -0.436000 -0.887600 0.148400
vn -0.227100 -0.905200 0.359100
vn -0.436000 -0.887600 -0.148400
vn -0.227100 -0.905200 -0.359100
usemtl Material
s 1
f 12/1/1 6/2/2 2/3/3
f 10/4/4 4/5/5 8/6/6
f 11/7/7 8/8/6 6/9/2
f 7/10/8 3/11/9 10/4/4
f 5/12/10 7/13/8 11/7/7
f 1/14/11 5/15/10 12/1/1
f 6/16/2 8/17/6 4/18/5
f 3/11/9 7/10/8 5/19/10
f 3/20/9 1/21/11 9/22/12
f 9/22/12 2/23/3 4/18/5
f 9/24/12 12/1/1 2/3/3
f 11/25/7 10/4/4 8/6/6
f 12/26/1 11/7/7 6/9/2
f 11/25/7 7/10/8 10/4/4
f 12/26/1 5/12/10 11/7/7
f 9/24/12 1/14/11 12/1/1
f 2/23/3 6/16/2 4/18/5
f 1/27/11 3/11/9 5/19/10
f 10/28/4 3/20/9 9/22/12
f 10/28/4 9/22/12 4/18/5
usemtl Material.001
f 37/29/13 42/30/14 54/31/15
f 32/32/16 41/33/17 44/34/18
f 38/35/19 60/36/20 57/37/21
f 41/33/17 32/32/16 56/38/22
f 45/39/23 29/40/24 44/34/18
f 47/41/25 35/42/26 30/43/27
f 52/44/28 49/45/29 43/46/30
f 48/47/31 51/48/32 39/49/33
f 31/50/34 34/51/35 58/52/36
f 31/50/34 30/43/27 35/42/26
f 37/29/13 40/53/37 43/46/30
f 33/54/38 36/55/39 39/49/33
f 19/56/40 20/57/41 23/58/42
f 31/50/34 32/59/16 29/60/24
f 43/46/30 44/34/18 41/33/17
f 38/35/19 39/49/33 40/53/37
f 34/51/35 35/42/26 36/55/39
f 29/60/24 45/61/23 46/62/43
f 36/55/39 35/42/26 47/41/25
f 42/30/14 41/33/17 53/63/44
f 55/64/45 56/65/22 32/59/16
f 43/46/30 49/45/29 50/66/46
f 33/54/38 57/37/21 58/52/36
f 40/53/37 39/49/33 51/48/32
f 37/29/13 59/67/47 60/36/20
f 25/68/48 26/69/49 22/70/50
f 16/71/51 15/72/52 46/73/43
f 19/56/40 48/74/31 47/75/25
f 24/76/53 23/58/42 50/77/46
f 27/78/54 52/79/28 51/80/32
f 15/72/52 20/57/41 47/75/25
f 23/58/42 16/71/51 45/81/23
f 24/76/53 49/82/29 52/79/28
f 28/83/55 51/80/32 48/74/31
f 22/70/50 21/84/56 54/85/15
f 14/86/57 13/87/58 56/88/22
f 17/89/59 58/90/36 57/91/21
f 25/68/48 60/92/20 59/93/47
f 13/87/58 22/70/50 53/94/44
f 17/89/59 14/86/57 55/95/45
f 18/96/60 57/91/21 60/92/20
f 26/69/49 59/93/47 54/85/15
f 59/67/47 37/29/13 54/31/15
f 29/40/24 32/32/16 44/34/18
f 33/54/38 38/35/19 57/37/21
f 53/63/44 41/33/17 56/38/22
f 50/66/46 45/39/23 44/34/18
f 46/62/43 47/41/25 30/43/27
f 40/53/37 52/44/28 43/46/30
f 36/55/39 48/47/31 39/49/33
f 55/64/45 31/50/34 58/52/36
f 34/51/35 31/50/34 35/42/26
f 42/30/14 37/29/13 43/46/30
f 38/35/19 33/54/38 39/49/33
f 16/71/51 23/58/42 20/57/41
f 24/76/53 27/78/54 28/83/55
f 28/83/55 19/56/40 23/58/42
f 20/57/41 15/72/52 16/71/51
f 23/58/42 24/76/53 28/83/55
f 30/43/27 31/50/34 29/60/24
f 42/30/14 43/46/30 41/33/17
f 37/29/13 38/35/19 40/53/37
f 33/54/38 34/51/35 36/55/39
f 30/43/27 29/60/24 46/62/43
f 48/47/31 36/55/39 47/41/25
f 54/31/15 42/30/14 53/63/44
f 31/50/34 55/64/45 32/59/16
f 44/34/18 43/46/30 50/66/46
f 34/51/35 33/54/38 58/52/36
f 52/44/28 40/53/37 51/48/32
f 38/35/19 37/29/13 60/36/20
f 22/70/50 13/87/58 17/89/59
f 14/86/57 17/89/59 13/87/58
f 18/96/60 25/68/48 22/70/50
f 26/69/49 21/84/56 22/70/50
f 22/70/50 17/89/59 18/96/60
f 45/97/23 16/71/51 46/73/43
f 20/57/41 19/56/40 47/75/25
f 49/82/29 24/76/53 50/77/46
f 28/83/55 27/78/54 51/80/32
f 46/73/43 15/72/52 47/75/25
f 50/77/46 23/58/42 45/81/23
f 27/78/54 24/76/53 52/79/28
f 19/56/40 28/83/55 48/74/31
f 53/94/44 22/70/50 54/85/15
f 55/95/45 14/86/57 56/88/22
f 18/96/60 17/89/59 57/91/21
f 26/69/49 25/68/48 59/93/47
f 56/98/22 13/87/58 53/94/44
f 58/90/36 17/89/59 55/95/45
f 25/68/48 18/96/60 60/92/20
f 21/84/56 26/69/49 54/85/15
