# Blender v2.76 (sub 0) OBJ File: ''
# www.blender.org
o Cube.002_Cube.003
v 0.400000 0.001000 0.001000
v 0.400000 0.001000 2.001000
v -0.000000 0.001000 2.001000
v 0.000000 0.001000 0.001000
v 0.400000 2.001000 0.001001
v 0.400000 2.001000 2.001001
v -0.000000 2.001000 2.001000
v 0.000000 2.001000 0.001000
v 0.400000 2.001000 0.001001
vt 0.000000 0.000000
vt 1.000000 0.000000
vt 1.000000 1.000000
vt 0.000000 1.000000
vn 0.000000 -1.000000 0.000000
vn 0.000000 1.000000 0.000000
vn 1.000000 0.000000 0.000000
vn -0.000000 0.000000 1.000000
vn -1.000000 -0.000000 -0.000000
vn 0.000000 0.000000 -1.000000
s off
f 1/1/1 2/2/1 3/3/1
f 5/1/2 8/2/2 7/3/2
f 5/2/3 6/3/3 2/4/3
f 6/2/4 7/3/4 3/4/4
f 3/1/5 7/2/5 8/3/5
f 5/1/6 1/2/6 4/3/6
f 4/4/1 1/1/1 3/3/1
f 6/4/2 5/1/2 7/3/2
f 1/1/3 5/2/3 2/4/3
f 2/1/4 6/2/4 3/4/4
f 4/4/5 3/1/5 8/3/5
f 8/4/6 5/1/6 4/3/6
o Cube.000_Cube.002
v 2.010000 0.000000 0.000000
v 2.010000 0.000000 0.400000
v 0.010000 0.000000 0.400000
v 0.010000 0.000000 -0.000000
v 2.010000 2.000000 0.000000
v 2.009999 2.000000 0.400000
v 0.010000 2.000000 0.400000
v 0.010000 2.000000 0.000000
v 2.010000 2.000000 0.000000
vt 1.000000 0.000000
vt 1.000000 1.000000
vt 0.000000 1.000000
vt 0.000000 0.000000
vn 0.000000 -1.000000 0.000000
vn 0.000000 1.000000 0.000000
vn 1.000000 0.000000 0.000000
vn -0.000000 0.000000 1.000000
vn -1.000000 -0.000000 -0.000000
vn 0.000000 0.000000 -1.000000
s off
f 11/5/7 12/6/7 13/7/7
f 17/5/8 16/6/8 15/7/8
f 14/5/9 15/6/9 11/7/9
f 15/5/10 16/6/10 12/7/10
f 16/5/11 17/6/11 13/7/11
f 10/5/12 13/6/12 17/7/12
f 10/8/7 11/5/7 13/7/7
f 14/8/8 17/5/8 15/7/8
f 10/8/9 14/5/9 11/7/9
f 11/8/10 15/5/10 12/7/10
f 12/8/11 16/5/11 13/7/11
f 14/8/12 10/5/12 17/7/12
o Cube.001
v 2.000000 0.000000 0.000000
v 2.000000 0.000000 0.400000
v -0.000000 0.000000 0.400000
v 0.000000 0.000000 -0.000000
v 2.000000 2.000000 0.000000
v 1.999999 2.000000 0.400000
v -0.000000 2.000000 0.400000
v 0.000000 2.000000 0.000000
v 2.000000 2.000000 0.000000
vt 1.000000 0.000000
vt 1.000000 1.000000
vt 0.000000 1.000000
vt 0.000000 0.000000
vn 0.000000 -1.000000 0.000000
vn 0.000000 1.000000 0.000000
vn 1.000000 0.000000 0.000000
vn -0.000000 0.000000 1.000000
vn -1.000000 -0.000000 -0.000000
vn 0.000000 0.000000 -1.000000
s off
f 20/9/13 21/10/13 22/11/13
f 26/9/14 25/10/14 24/11/14
f 23/9/15 24/10/15 20/11/15
f 24/9/16 25/10/16 21/11/16
f 25/9/17 26/10/17 22/11/17
f 19/9/18 22/10/18 26/11/18
f 19/12/13 20/9/13 22/11/13
f 23/12/14 26/9/14 24/11/14
f 19/12/15 23/9/15 20/11/15
f 20/12/16 24/9/16 21/11/16
f 21/12/17 25/9/17 22/11/17
f 23/12/18 19/9/18 26/11/18
